<svg xmlns="http://www.w3.org/2000/svg" viewBox="0 0 140 140" role="img" aria-label="FOF Sports mark">
  
  <circle cx="70" cy="70" r="66" fill="#0B2A5B"></circle>
  <circle cx="70" cy="70" r="66" fill="none" stroke="#FFC72C" stroke-width="3"></circle>
  <circle cx="70" cy="70" r="58" fill="none" stroke="#FFC72C" stroke-width="1" opacity="0.45"></circle>

  
  <text x="70" y="72" font-family="Nunito, ui-rounded, sans-serif" font-weight="900" font-size="48" fill="#FFC72C" text-anchor="middle" letter-spacing="-1.5">FOF</text>

  
  <g transform="translate(70 102)">
    <path d="M-40 -10 L40 -10 L44 0 L40 10 L-40 10 L-44 0 Z" fill="#FFC72C"></path>
    <text x="0" y="5" font-family="Nunito, ui-rounded, sans-serif" font-weight="900" font-size="16" fill="#0B2A5B" text-anchor="middle" letter-spacing="3">SPORTS</text>
  </g>

  
  <path d="M16 70 L18 74 L22 74.5 L19 77 L19.6 81 L16 79 L12.4 81 L13 77 L10 74.5 L14 74 Z" fill="#FFC72C"></path>
  <path d="M124 70 L126 74 L130 74.5 L127 77 L127.6 81 L124 79 L120.4 81 L121 77 L118 74.5 L122 74 Z" fill="#FFC72C"></path>
</svg>